<svg width="85" height="85" viewBox="0 0 85 85" fill="none" xmlns="http://www.w3.org/2000/svg">
<path d="M65.0781 84.994H19.9219C8.93695 84.994 0 76.0571 0 65.0722V37.1365C0 30.9622 2.93101 25.0406 7.84025 21.2962L30.4184 4.07552C37.532 -1.35004 47.468 -1.35004 54.5816 4.07552L61.7578 9.54407V5.30652C61.9331 0.90113 68.2246 0.90445 68.3984 5.30652V16.2488C68.3984 17.511 67.6827 18.664 66.5515 19.2243C65.4203 19.7844 64.0694 19.6546 63.0655 18.8898L50.5554 9.35664C45.812 5.73883 39.1877 5.73883 34.4454 9.35581L11.8673 26.5764C8.59463 29.0725 6.64062 33.0202 6.64062 37.1365V65.0722C6.64062 72.3954 12.5986 78.3534 19.9219 78.3534H65.0781C72.4014 78.3534 78.3594 72.3954 78.3594 65.0722V37.1365C78.3594 32.9697 76.4275 29.0086 73.1915 26.5403C71.7334 25.4281 71.453 23.3446 72.5651 21.8867C73.6772 20.4286 75.7609 20.1482 77.2187 21.2603C82.0911 24.9764 85 30.9114 85 37.1365V65.0722C85 76.0571 76.063 84.994 65.0781 84.994V84.994ZM35.8594 38.3436C33.5672 38.3436 31.709 40.2018 31.709 42.494C31.9283 48.0008 39.7925 47.9966 40.0098 42.494C40.0098 40.2017 38.1516 38.3436 35.8594 38.3436ZM53.291 42.4939C53.0717 48.0006 45.2075 47.9964 44.9902 42.4939C45.2095 36.9871 53.0737 36.9914 53.291 42.4939ZM40.0098 55.7751C39.7905 61.2818 31.9263 61.2777 31.709 55.7751C31.9283 50.2684 39.7925 50.2727 40.0098 55.7751ZM53.291 55.7751C53.0717 61.2818 45.2075 61.2777 44.9902 55.7751C45.2095 50.2684 53.0737 50.2727 53.291 55.7751Z" fill="#38A0FF"/>
</svg>
