<svg width="54" height="54" viewBox="0 0 54 54" fill="none" xmlns="http://www.w3.org/2000/svg">
<g clip-path="url(#clip0)">
<path d="M42.1404 39.3997C45.7241 39.3997 48.6294 36.4945 48.6294 32.9107C48.6294 29.327 45.7241 26.4218 42.1404 26.4218C38.5566 26.4218 35.6514 29.327 35.6514 32.9107C35.6514 36.4945 38.5566 39.3997 42.1404 39.3997Z" stroke="#1657B9" stroke-width="4" stroke-linecap="round" stroke-linejoin="round"/>
<path d="M32.0151 52.2945C32.0151 49.6092 33.0819 47.0339 34.9807 45.1351C36.8795 43.2362 39.4548 42.1695 42.1401 42.1695C44.8255 42.1695 47.4008 43.2362 49.2996 45.1351C51.1984 47.0339 52.2651 49.6092 52.2651 52.2945H32.0151Z" stroke="#1657B9" stroke-width="4" stroke-linecap="round" stroke-linejoin="round"/>
<path d="M11.8599 23.625H32.1099" stroke="#1657B9" stroke-width="4" stroke-linecap="round" stroke-linejoin="round"/>
<path d="M11.8599 32.0625H27.0474" stroke="#1657B9" stroke-width="4" stroke-linecap="round" stroke-linejoin="round"/>
<path d="M11.8599 40.5H27.0474" stroke="#1657B9" stroke-width="4" stroke-linecap="round" stroke-linejoin="round"/>
<path d="M24.2349 52.3125H5.10986C4.21476 52.3125 3.35631 51.9569 2.72338 51.324C2.09044 50.691 1.73486 49.8326 1.73486 48.9375V13.5C1.73486 12.6049 2.09044 11.7464 2.72338 11.1135C3.35631 10.4806 4.21476 10.125 5.10986 10.125H13.5474C13.5474 7.88724 14.4363 5.74112 16.0186 4.15879C17.601 2.57645 19.7471 1.6875 21.9849 1.6875C24.2226 1.6875 26.3687 2.57645 27.9511 4.15879C29.5334 5.74112 30.4224 7.88724 30.4224 10.125H38.8599C39.755 10.125 40.6134 10.4806 41.2463 11.1135C41.8793 11.7464 42.2349 12.6049 42.2349 13.5V19.6875" stroke="#1657B9" stroke-width="4" stroke-linecap="round" stroke-linejoin="round"/>
<path d="M21.9849 8.4375C22.1517 8.4375 22.3149 8.48698 22.4536 8.5797C22.5924 8.67241 22.7005 8.80419 22.7644 8.95836C22.8282 9.11254 22.845 9.28219 22.8124 9.44586C22.7798 9.60953 22.6995 9.75987 22.5815 9.87787C22.4635 9.99587 22.3131 10.0762 22.1495 10.1088C21.9858 10.1413 21.8161 10.1246 21.662 10.0608C21.5078 9.99691 21.376 9.88877 21.2833 9.75001C21.1906 9.61126 21.1411 9.44813 21.1411 9.28125C21.1411 9.05747 21.23 8.84286 21.3882 8.68463C21.5465 8.52639 21.7611 8.4375 21.9849 8.4375" stroke="#1657B9" stroke-width="4" stroke-linecap="round" stroke-linejoin="round"/>
</g>
<defs>
<clipPath id="clip0">
<rect width="54" height="54" fill="white"/>
</clipPath>
</defs>
</svg>
