<svg width="50" height="50" viewBox="0 0 50 50" fill="none" xmlns="http://www.w3.org/2000/svg">
<g clip-path="url(#clip0)">
<path d="M39.0191 36.4813C42.3374 36.4813 45.0274 33.7912 45.0274 30.4729C45.0274 27.1546 42.3374 24.4646 39.0191 24.4646C35.7008 24.4646 33.0107 27.1546 33.0107 30.4729C33.0107 33.7912 35.7008 36.4813 39.0191 36.4813Z" stroke="black" stroke-width="5" stroke-linecap="round" stroke-linejoin="round"/>
<path d="M29.644 48.4208C29.644 45.9344 30.6318 43.5499 32.3899 41.7917C34.1481 40.0336 36.5326 39.0458 39.019 39.0458C41.5055 39.0458 43.89 40.0336 45.6482 41.7917C47.4063 43.5499 48.394 45.9344 48.394 48.4208H29.644Z" stroke="black" stroke-width="5" stroke-linecap="round" stroke-linejoin="round"/>
<path d="M10.9814 21.875H29.7314" stroke="black" stroke-width="5" stroke-linecap="round" stroke-linejoin="round"/>
<path d="M10.9814 29.6875H25.0439" stroke="black" stroke-width="5" stroke-linecap="round" stroke-linejoin="round"/>
<path d="M10.9814 37.5H25.0439" stroke="black" stroke-width="5" stroke-linecap="round" stroke-linejoin="round"/>
<path d="M22.4398 48.4375H4.73144C3.90264 48.4375 3.10779 48.1083 2.52174 47.5222C1.93569 46.9362 1.60645 46.1413 1.60645 45.3125V12.5C1.60645 11.6712 1.93569 10.8763 2.52174 10.2903C3.10779 9.70424 3.90264 9.375 4.73144 9.375H12.5439C12.5439 7.303 13.367 5.31586 14.8322 3.85073C16.2973 2.3856 18.2844 1.5625 20.3564 1.5625C22.4284 1.5625 24.4156 2.3856 25.8807 3.85073C27.3458 5.31586 28.1689 7.303 28.1689 9.375H35.9814C36.8102 9.375 37.6051 9.70424 38.1911 10.2903C38.7772 10.8763 39.1064 11.6712 39.1064 12.5V18.2292" stroke="black" stroke-width="5" stroke-linecap="round" stroke-linejoin="round"/>
<path d="M20.3564 7.8125C20.511 7.8125 20.662 7.85832 20.7905 7.94416C20.919 8.03001 21.0191 8.15202 21.0782 8.29478C21.1374 8.43753 21.1528 8.59462 21.1227 8.74616C21.0925 8.89771 21.0181 9.03692 20.9089 9.14618C20.7996 9.25544 20.6604 9.32984 20.5089 9.35999C20.3573 9.39013 20.2002 9.37466 20.0575 9.31553C19.9147 9.2564 19.7927 9.15626 19.7069 9.02779C19.621 8.89931 19.5752 8.74827 19.5752 8.59375C19.5752 8.38655 19.6575 8.18784 19.804 8.04132C19.9505 7.89481 20.1492 7.8125 20.3564 7.8125" stroke="black" stroke-width="5" stroke-linecap="round" stroke-linejoin="round"/>
</g>
<defs>
<clipPath id="clip0">
<rect width="50" height="50" fill="white"/>
</clipPath>
</defs>
</svg>
