<svg width="225" height="75" viewBox="0 0 225 75" fill="none" xmlns="http://www.w3.org/2000/svg">
<path d="M117.25 37.1C119.217 37.4667 120.833 38.45 122.1 40.05C123.367 41.65 124 43.4833 124 45.55C124 47.4167 123.533 49.0667 122.6 50.5C121.7 51.9 120.383 53 118.65 53.8C116.917 54.6 114.867 55 112.5 55H97.45V20.1H111.85C114.217 20.1 116.25 20.4833 117.95 21.25C119.683 22.0167 120.983 23.0833 121.85 24.45C122.75 25.8167 123.2 27.3667 123.2 29.1C123.2 31.1333 122.65 32.8333 121.55 34.2C120.483 35.5667 119.05 36.5333 117.25 37.1ZM104.45 34.5H110.85C112.517 34.5 113.8 34.1333 114.7 33.4C115.6 32.6333 116.05 31.55 116.05 30.15C116.05 28.75 115.6 27.6667 114.7 26.9C113.8 26.1333 112.517 25.75 110.85 25.75H104.45V34.5ZM111.5 49.3C113.2 49.3 114.517 48.9 115.45 48.1C116.417 47.3 116.9 46.1667 116.9 44.7C116.9 43.2 116.4 42.0333 115.4 41.2C114.4 40.3333 113.05 39.9 111.35 39.9H104.45V49.3H111.5ZM155.329 40.55C155.329 41.55 155.262 42.45 155.129 43.25H134.879C135.046 45.25 135.746 46.8167 136.979 47.95C138.212 49.0833 139.729 49.65 141.529 49.65C144.129 49.65 145.979 48.5333 147.079 46.3H154.629C153.829 48.9667 152.296 51.1667 150.029 52.9C147.762 54.6 144.979 55.45 141.679 55.45C139.012 55.45 136.612 54.8667 134.479 53.7C132.379 52.5 130.729 50.8167 129.529 48.65C128.362 46.4833 127.779 43.9833 127.779 41.15C127.779 38.2833 128.362 35.7667 129.529 33.6C130.696 31.4333 132.329 29.7667 134.429 28.6C136.529 27.4333 138.946 26.85 141.679 26.85C144.312 26.85 146.662 27.4167 148.729 28.55C150.829 29.6833 152.446 31.3 153.579 33.4C154.746 35.4667 155.329 37.85 155.329 40.55ZM148.079 38.55C148.046 36.75 147.396 35.3167 146.129 34.25C144.862 33.15 143.312 32.6 141.479 32.6C139.746 32.6 138.279 33.1333 137.079 34.2C135.912 35.2333 135.196 36.6833 134.929 38.55H148.079ZM158.638 41.05C158.638 38.25 159.188 35.7667 160.288 33.6C161.422 31.4333 162.955 29.7667 164.888 28.6C166.822 27.4333 168.972 26.85 171.338 26.85C173.138 26.85 174.855 27.25 176.488 28.05C178.122 28.8167 179.422 29.85 180.388 31.15V18H187.488V55H180.388V50.9C179.522 52.2667 178.305 53.3667 176.738 54.2C175.172 55.0333 173.355 55.45 171.288 55.45C168.955 55.45 166.822 54.85 164.888 53.65C162.955 52.45 161.422 50.7667 160.288 48.6C159.188 46.4 158.638 43.8833 158.638 41.05ZM180.438 41.15C180.438 39.45 180.105 38 179.438 36.8C178.772 35.5667 177.872 34.6333 176.738 34C175.605 33.3333 174.388 33 173.088 33C171.788 33 170.588 33.3167 169.488 33.95C168.388 34.5833 167.488 35.5167 166.788 36.75C166.122 37.95 165.788 39.3833 165.788 41.05C165.788 42.7167 166.122 44.1833 166.788 45.45C167.488 46.6833 168.388 47.6333 169.488 48.3C170.622 48.9667 171.822 49.3 173.088 49.3C174.388 49.3 175.605 48.9833 176.738 48.35C177.872 47.6833 178.772 46.75 179.438 45.55C180.105 44.3167 180.438 42.85 180.438 41.15ZM192.525 41.05C192.525 38.25 193.075 35.7667 194.175 33.6C195.308 31.4333 196.842 29.7667 198.775 28.6C200.708 27.4333 202.858 26.85 205.225 26.85C207.025 26.85 208.742 27.25 210.375 28.05C212.008 28.8167 213.308 29.85 214.275 31.15V18H221.375V55H214.275V50.9C213.408 52.2667 212.192 53.3667 210.625 54.2C209.058 55.0333 207.242 55.45 205.175 55.45C202.842 55.45 200.708 54.85 198.775 53.65C196.842 52.45 195.308 50.7667 194.175 48.6C193.075 46.4 192.525 43.8833 192.525 41.05ZM214.325 41.15C214.325 39.45 213.992 38 213.325 36.8C212.658 35.5667 211.758 34.6333 210.625 34C209.492 33.3333 208.275 33 206.975 33C205.675 33 204.475 33.3167 203.375 33.95C202.275 34.5833 201.375 35.5167 200.675 36.75C200.008 37.95 199.675 39.3833 199.675 41.05C199.675 42.7167 200.008 44.1833 200.675 45.45C201.375 46.6833 202.275 47.6333 203.375 48.3C204.508 48.9667 205.708 49.3 206.975 49.3C208.275 49.3 209.492 48.9833 210.625 48.35C211.758 47.6833 212.658 46.75 213.325 45.55C213.992 44.3167 214.325 42.85 214.325 41.15Z" fill="white"/>
<circle cx="22.5" cy="37.5" r="22.5" fill="white" fill-opacity="0.81"/>
<circle cx="51.5" cy="37.5" r="22.5" fill="#50C0FF" fill-opacity="0.81"/>
</svg>
