<svg width="85" height="85" viewBox="0 0 85 85" fill="none" xmlns="http://www.w3.org/2000/svg">
<g clip-path="url(#clip0)">
<path d="M65.4064 84.993C60.1555 84.993 55.218 82.9275 51.503 79.1765C47.7922 75.4298 45.7743 70.4782 45.8206 65.2315L45.8198 49.1397C45.8198 47.7969 46.6285 46.5863 47.869 46.0724C49.109 45.5582 50.5373 45.8425 51.4871 46.792L51.7568 47.0617C53.0432 48.3484 54.9785 48.6761 56.5733 47.8772C59.2973 46.512 62.242 45.8196 65.3255 45.8196C65.332 45.8198 65.3387 45.8198 65.3451 45.8196C70.5505 45.8196 75.4568 47.8252 79.1575 51.4677C82.87 55.1218 84.9424 60.0038 84.9922 65.2145C85.3107 75.8496 76.0549 85.2136 65.4064 84.993V84.993ZM52.4596 54.7075L52.4601 65.2464C52.4601 65.257 52.4601 65.2678 52.46 65.2784C52.4266 68.7458 53.7621 72.0222 56.2204 74.5042C64.3982 82.7436 78.4713 76.8807 78.3528 65.2784C78.2849 58.2087 72.4486 52.4593 65.3415 52.4593C65.3373 52.4595 65.333 52.4595 65.3285 52.4593C63.2842 52.4593 61.3403 52.9148 59.5478 53.8131C57.3022 54.9388 54.8045 55.2149 52.4596 54.7075ZM19.5898 84.993C2.13842 84.9922 -6.56369 63.789 5.82352 51.5031C9.52805 47.8339 14.4119 45.8198 19.5929 45.8198H35.8603C38.7956 45.81 40.2894 49.4194 38.208 51.4871L37.9383 51.7569C36.6516 53.0434 36.3237 54.979 37.1228 56.5733C38.4892 59.3 39.1815 62.2482 39.1804 65.3354C39.3978 75.818 30.2791 85.1039 19.7855 84.9922C19.7201 84.9927 19.6547 84.993 19.5898 84.993V84.993ZM19.5949 52.4593C16.1744 52.4593 12.9476 53.7919 10.4958 56.2204C5.39843 61.0459 5.40805 69.8006 10.4601 74.6116C12.93 77.0576 16.2114 78.3902 19.7216 78.3528C26.7933 78.285 32.544 72.4453 32.5407 65.3352C32.5415 63.2882 32.086 61.342 31.1869 59.5479C30.0613 57.3019 29.7856 54.8039 30.2925 52.4596C30.2925 52.4596 19.7322 52.4601 19.7214 52.46C19.6794 52.4596 19.6369 52.4593 19.5949 52.4593V52.4593ZM35.8611 39.1804C34.9973 39.1804 34.1481 38.843 33.513 38.208L33.2433 37.9383C31.9567 36.6516 30.0215 36.3237 28.4268 37.1228C25.7028 38.4881 22.7582 39.1804 19.6746 39.1804C19.6685 39.1806 19.6618 39.1806 19.655 39.1804C14.4496 39.1804 9.54332 37.1748 5.84261 33.5323C2.13012 29.8783 0.0577509 24.9962 0.00795435 19.7855C-0.309913 9.15045 8.9446 -0.21362 19.5938 0.00714479C30.1496 -0.218599 39.4981 9.21402 39.1794 19.7686L39.1802 35.8603C39.1802 37.2032 38.3715 38.4137 37.1309 38.9276C36.7203 39.0977 36.2889 39.1804 35.8611 39.1804V39.1804ZM19.6646 32.5407C21.7111 32.5417 23.6578 32.0862 25.4522 31.1869C27.6981 30.0615 30.1958 29.7856 32.5404 30.2926L32.5399 19.7536C32.5399 19.743 32.5399 19.7322 32.54 19.7218C32.5732 16.2543 31.2377 12.9778 28.7794 10.4958C20.6016 2.25645 6.52864 8.1195 6.64716 19.7216C6.71488 26.7934 12.5555 32.5444 19.6646 32.5407ZM49.1397 39.1802C47.7972 39.1802 46.5866 38.3717 46.0726 37.1314C45.5585 35.891 45.8422 34.4634 46.7913 33.5137L47.0609 33.244C48.3484 31.9566 48.6761 30.021 47.8772 28.4268C46.5104 25.6997 45.8183 22.7517 45.8196 19.6647C45.8171 14.4556 47.8229 9.54567 51.4677 5.84263C55.1217 2.13014 60.0038 0.0577712 65.2145 0.00797473C82.7615 -0.163823 91.6277 21.1426 79.1765 33.497C75.4719 37.1661 70.588 39.1802 65.407 39.1802C65.3481 39.1802 49.1397 39.1802 49.1397 39.1802ZM65.4051 32.5407C68.8256 32.5407 72.0524 31.2082 74.5042 28.7796C79.6015 23.9541 79.5919 15.1994 74.5399 10.3884C72.0702 7.94222 68.7859 6.61431 65.2784 6.64718C58.2066 6.71507 52.4558 12.5547 52.4593 19.6647C52.4583 21.7116 52.9138 23.6577 53.8131 25.4522C54.9387 27.6982 55.2144 30.1961 54.7073 32.5404C54.7073 32.5404 65.3631 32.5407 65.4051 32.5407V32.5407ZM68.7262 22.9134H62.0866C57.6819 22.7381 57.6853 16.4476 62.0866 16.2738H68.7262C73.1308 16.4491 73.1275 22.7398 68.7262 22.9134ZM26.2331 19.5936C26.2331 17.7601 24.7469 16.2738 22.9134 16.2738H16.2738C11.8692 16.4491 11.8725 22.7396 16.2738 22.9134H22.9134C24.7469 22.9134 26.2331 21.4271 26.2331 19.5936ZM26.2331 65.5724C26.2331 63.7389 24.7469 62.2526 22.9134 62.2526H16.2738C11.8692 62.4279 11.8725 68.7184 16.2738 68.8922H22.9134C24.7469 68.8922 26.2331 67.4059 26.2331 65.5724ZM72.0459 65.5724C72.0459 63.7389 70.5597 62.2526 68.7262 62.2526H62.0866C57.6819 62.4279 57.6853 68.7184 62.0866 68.8922H68.7262C70.5597 68.8922 72.0459 67.4059 72.0459 65.5724Z" fill="#38A0FF"/>
</g>
<defs>
<clipPath id="clip0">
<rect width="85" height="85" fill="white"/>
</clipPath>
</defs>
</svg>
